<?xml version="1.0" encoding="UTF-8"?>
<svg id="Layer_2" data-name="Layer 2" xmlns="http://www.w3.org/2000/svg" viewBox="0 0 357.33 255.37">
  <defs>
    <style>
      .cls-1 {
        stroke: #ed3430;
      }

      .cls-1, .cls-2 {
        fill: none;
        stroke-miterlimit: 10;
        stroke-width: .25px;
      }

      .cls-2 {
        stroke: #010101;
      }
    </style>
  </defs>
  <g id="Layer_1-2" data-name="Layer 1">
    <circle class="cls-1" cx="76.66" cy="25.64" r="8.22"/>
    <circle class="cls-1" cx="89.42" cy="12.88" r="2.13"/>
    <circle class="cls-1" cx="63.9" cy="12.88" r="2.13"/>
    <circle class="cls-1" cx="89.42" cy="38.39" r="2.13"/>
    <circle class="cls-1" cx="63.9" cy="38.39" r="2.13"/>
    <circle class="cls-1" cx="331.78" cy="25.64" r="8.22"/>
    <circle class="cls-1" cx="344.53" cy="12.88" r="2.13"/>
    <circle class="cls-1" cx="319.02" cy="12.88" r="2.13"/>
    <circle class="cls-1" cx="344.53" cy="38.39" r="2.13"/>
    <circle class="cls-1" cx="319.02" cy="38.39" r="2.13"/>
    <circle class="cls-1" cx="280.75" cy="25.64" r="8.22"/>
    <circle class="cls-1" cx="293.51" cy="12.88" r="2.13"/>
    <circle class="cls-1" cx="268" cy="12.88" r="2.13"/>
    <circle class="cls-1" cx="293.51" cy="38.39" r="2.13"/>
    <circle class="cls-1" cx="268" cy="38.39" r="2.13"/>
    <circle class="cls-1" cx="229.73" cy="25.64" r="8.22"/>
    <circle class="cls-1" cx="242.49" cy="12.88" r="2.13"/>
    <circle class="cls-1" cx="216.97" cy="12.88" r="2.13"/>
    <circle class="cls-1" cx="242.49" cy="38.39" r="2.13"/>
    <circle class="cls-1" cx="216.97" cy="38.39" r="2.13"/>
    <circle class="cls-1" cx="178.71" cy="25.64" r="8.22"/>
    <circle class="cls-1" cx="191.46" cy="12.88" r="2.13"/>
    <circle class="cls-1" cx="165.95" cy="12.88" r="2.13"/>
    <circle class="cls-1" cx="191.46" cy="38.39" r="2.13"/>
    <circle class="cls-1" cx="165.95" cy="38.39" r="2.13"/>
    <circle class="cls-1" cx="127.68" cy="25.64" r="8.22"/>
    <circle class="cls-1" cx="140.44" cy="12.88" r="2.13"/>
    <circle class="cls-1" cx="114.93" cy="12.88" r="2.13"/>
    <circle class="cls-1" cx="140.44" cy="38.39" r="2.13"/>
    <circle class="cls-1" cx="114.93" cy="38.39" r="2.13"/>
    <circle class="cls-1" cx="25.64" cy="25.64" r="8.22"/>
    <circle class="cls-1" cx="38.39" cy="12.88" r="2.13"/>
    <circle class="cls-1" cx="12.88" cy="12.88" r="2.13"/>
    <circle class="cls-1" cx="38.39" cy="38.39" r="2.13"/>
    <circle class="cls-1" cx="12.88" cy="38.39" r="2.13"/>
    <circle class="cls-1" cx="76.66" cy="229.73" r="8.22"/>
    <circle class="cls-1" cx="89.42" cy="216.98" r="2.13"/>
    <circle class="cls-1" cx="63.9" cy="216.98" r="2.13"/>
    <circle class="cls-1" cx="89.42" cy="242.49" r="2.13"/>
    <circle class="cls-1" cx="63.9" cy="242.49" r="2.13"/>
    <circle class="cls-1" cx="331.78" cy="229.73" r="8.22"/>
    <circle class="cls-1" cx="344.53" cy="216.98" r="2.13"/>
    <circle class="cls-1" cx="319.02" cy="216.98" r="2.13"/>
    <circle class="cls-1" cx="344.53" cy="242.49" r="2.13"/>
    <circle class="cls-1" cx="319.02" cy="242.49" r="2.13"/>
    <circle class="cls-1" cx="280.75" cy="229.73" r="8.22"/>
    <circle class="cls-1" cx="293.51" cy="216.98" r="2.13"/>
    <circle class="cls-1" cx="268" cy="216.98" r="2.13"/>
    <circle class="cls-1" cx="293.51" cy="242.49" r="2.13"/>
    <circle class="cls-1" cx="268" cy="242.49" r="2.13"/>
    <circle class="cls-1" cx="229.73" cy="229.73" r="8.22"/>
    <circle class="cls-1" cx="242.49" cy="216.98" r="2.13"/>
    <circle class="cls-1" cx="216.97" cy="216.98" r="2.13"/>
    <circle class="cls-1" cx="242.49" cy="242.49" r="2.13"/>
    <circle class="cls-1" cx="216.97" cy="242.49" r="2.13"/>
    <circle class="cls-1" cx="178.71" cy="229.73" r="8.22"/>
    <circle class="cls-1" cx="191.46" cy="216.98" r="2.13"/>
    <circle class="cls-1" cx="165.95" cy="216.98" r="2.13"/>
    <circle class="cls-1" cx="191.46" cy="242.49" r="2.13"/>
    <circle class="cls-1" cx="165.95" cy="242.49" r="2.13"/>
    <circle class="cls-1" cx="127.68" cy="229.73" r="8.22"/>
    <circle class="cls-1" cx="140.44" cy="216.98" r="2.13"/>
    <circle class="cls-1" cx="114.93" cy="216.98" r="2.13"/>
    <circle class="cls-1" cx="140.44" cy="242.49" r="2.13"/>
    <circle class="cls-1" cx="114.93" cy="242.49" r="2.13"/>
    <circle class="cls-1" cx="25.64" cy="229.73" r="8.22"/>
    <circle class="cls-1" cx="38.39" cy="216.98" r="2.13"/>
    <circle class="cls-1" cx="12.88" cy="216.98" r="2.13"/>
    <circle class="cls-1" cx="38.39" cy="242.49" r="2.13"/>
    <circle class="cls-1" cx="12.88" cy="242.49" r="2.13"/>
    <circle class="cls-1" cx="76.57" cy="76.62" r="8.22"/>
    <circle class="cls-1" cx="89.33" cy="63.86" r="2.13"/>
    <circle class="cls-1" cx="63.81" cy="63.86" r="2.13"/>
    <circle class="cls-1" cx="89.33" cy="89.37" r="2.13"/>
    <circle class="cls-1" cx="63.81" cy="89.37" r="2.13"/>
    <circle class="cls-1" cx="331.69" cy="76.62" r="8.22"/>
    <circle class="cls-1" cx="344.44" cy="63.86" r="2.13"/>
    <circle class="cls-1" cx="318.93" cy="63.86" r="2.13"/>
    <circle class="cls-1" cx="344.44" cy="89.37" r="2.13"/>
    <circle class="cls-1" cx="318.93" cy="89.37" r="2.13"/>
    <circle class="cls-1" cx="280.66" cy="76.62" r="8.22"/>
    <circle class="cls-1" cx="293.42" cy="63.86" r="2.13"/>
    <circle class="cls-1" cx="267.91" cy="63.86" r="2.13"/>
    <circle class="cls-1" cx="293.42" cy="89.37" r="2.13"/>
    <circle class="cls-1" cx="267.91" cy="89.37" r="2.13"/>
    <circle class="cls-1" cx="229.64" cy="76.62" r="8.22"/>
    <circle class="cls-1" cx="242.4" cy="63.86" r="2.13"/>
    <circle class="cls-1" cx="216.88" cy="63.86" r="2.13"/>
    <circle class="cls-1" cx="242.4" cy="89.37" r="2.13"/>
    <circle class="cls-1" cx="216.88" cy="89.37" r="2.13"/>
    <circle class="cls-1" cx="178.62" cy="76.62" r="8.22"/>
    <circle class="cls-1" cx="191.37" cy="63.86" r="2.13"/>
    <circle class="cls-1" cx="165.86" cy="63.86" r="2.13"/>
    <circle class="cls-1" cx="191.37" cy="89.37" r="2.13"/>
    <circle class="cls-1" cx="165.86" cy="89.37" r="2.13"/>
    <circle class="cls-1" cx="127.59" cy="76.62" r="8.22"/>
    <circle class="cls-1" cx="140.35" cy="63.86" r="2.13"/>
    <circle class="cls-1" cx="114.84" cy="63.86" r="2.13"/>
    <circle class="cls-1" cx="140.35" cy="89.37" r="2.13"/>
    <circle class="cls-1" cx="114.84" cy="89.37" r="2.13"/>
    <circle class="cls-1" cx="25.55" cy="76.62" r="8.22"/>
    <circle class="cls-1" cx="38.3" cy="63.86" r="2.13"/>
    <circle class="cls-1" cx="12.79" cy="63.86" r="2.13"/>
    <circle class="cls-1" cx="38.3" cy="89.37" r="2.13"/>
    <circle class="cls-1" cx="12.79" cy="89.37" r="2.13"/>
    <circle class="cls-1" cx="76.57" cy="127.69" r="8.22"/>
    <circle class="cls-1" cx="89.33" cy="114.93" r="2.13"/>
    <circle class="cls-1" cx="63.81" cy="114.93" r="2.13"/>
    <circle class="cls-1" cx="89.33" cy="140.44" r="2.13"/>
    <circle class="cls-1" cx="63.81" cy="140.44" r="2.13"/>
    <circle class="cls-1" cx="331.69" cy="127.69" r="8.22"/>
    <circle class="cls-1" cx="344.44" cy="114.93" r="2.13"/>
    <circle class="cls-1" cx="318.93" cy="114.93" r="2.13"/>
    <circle class="cls-1" cx="344.44" cy="140.44" r="2.13"/>
    <circle class="cls-1" cx="318.93" cy="140.44" r="2.13"/>
    <circle class="cls-1" cx="280.66" cy="127.69" r="8.22"/>
    <circle class="cls-1" cx="293.42" cy="114.93" r="2.13"/>
    <circle class="cls-1" cx="267.91" cy="114.93" r="2.13"/>
    <circle class="cls-1" cx="293.42" cy="140.44" r="2.13"/>
    <circle class="cls-1" cx="267.91" cy="140.44" r="2.13"/>
    <circle class="cls-1" cx="229.64" cy="127.69" r="8.22"/>
    <circle class="cls-1" cx="242.4" cy="114.93" r="2.13"/>
    <circle class="cls-1" cx="216.88" cy="114.93" r="2.13"/>
    <circle class="cls-1" cx="242.4" cy="140.44" r="2.13"/>
    <circle class="cls-1" cx="216.88" cy="140.44" r="2.13"/>
    <circle class="cls-1" cx="178.62" cy="127.69" r="8.22"/>
    <circle class="cls-1" cx="191.37" cy="114.93" r="2.13"/>
    <circle class="cls-1" cx="165.86" cy="114.93" r="2.13"/>
    <circle class="cls-1" cx="191.37" cy="140.44" r="2.13"/>
    <circle class="cls-1" cx="165.86" cy="140.44" r="2.13"/>
    <circle class="cls-1" cx="127.59" cy="127.69" r="8.22"/>
    <circle class="cls-1" cx="140.35" cy="114.93" r="2.13"/>
    <circle class="cls-1" cx="114.84" cy="114.93" r="2.13"/>
    <circle class="cls-1" cx="140.35" cy="140.44" r="2.13"/>
    <circle class="cls-1" cx="114.84" cy="140.44" r="2.13"/>
    <circle class="cls-1" cx="25.55" cy="127.69" r="8.22"/>
    <circle class="cls-1" cx="38.3" cy="114.93" r="2.13"/>
    <circle class="cls-1" cx="12.79" cy="114.93" r="2.13"/>
    <circle class="cls-1" cx="38.3" cy="140.44" r="2.13"/>
    <circle class="cls-1" cx="12.79" cy="140.44" r="2.13"/>
    <circle class="cls-1" cx="76.57" cy="178.71" r="8.22"/>
    <circle class="cls-1" cx="89.33" cy="165.95" r="2.13"/>
    <circle class="cls-1" cx="63.81" cy="165.95" r="2.13"/>
    <circle class="cls-1" cx="89.33" cy="191.46" r="2.13"/>
    <circle class="cls-1" cx="63.81" cy="191.46" r="2.13"/>
    <circle class="cls-1" cx="331.69" cy="178.71" r="8.22"/>
    <circle class="cls-1" cx="344.44" cy="165.95" r="2.13"/>
    <circle class="cls-1" cx="318.93" cy="165.95" r="2.13"/>
    <circle class="cls-1" cx="344.44" cy="191.46" r="2.13"/>
    <circle class="cls-1" cx="318.93" cy="191.46" r="2.13"/>
    <circle class="cls-1" cx="280.66" cy="178.71" r="8.22"/>
    <circle class="cls-1" cx="293.42" cy="165.95" r="2.13"/>
    <circle class="cls-1" cx="267.91" cy="165.95" r="2.13"/>
    <circle class="cls-1" cx="293.42" cy="191.46" r="2.13"/>
    <circle class="cls-1" cx="267.91" cy="191.46" r="2.13"/>
    <circle class="cls-1" cx="229.64" cy="178.71" r="8.22"/>
    <circle class="cls-1" cx="242.4" cy="165.95" r="2.13"/>
    <circle class="cls-1" cx="216.88" cy="165.95" r="2.13"/>
    <circle class="cls-1" cx="242.4" cy="191.46" r="2.13"/>
    <circle class="cls-1" cx="216.88" cy="191.46" r="2.13"/>
    <circle class="cls-1" cx="178.62" cy="178.71" r="8.22"/>
    <circle class="cls-1" cx="191.37" cy="165.95" r="2.13"/>
    <circle class="cls-1" cx="165.86" cy="165.95" r="2.13"/>
    <circle class="cls-1" cx="191.37" cy="191.46" r="2.13"/>
    <circle class="cls-1" cx="165.86" cy="191.46" r="2.13"/>
    <circle class="cls-1" cx="127.59" cy="178.71" r="8.22"/>
    <circle class="cls-1" cx="140.35" cy="165.95" r="2.13"/>
    <circle class="cls-1" cx="114.84" cy="165.95" r="2.13"/>
    <circle class="cls-1" cx="140.35" cy="191.46" r="2.13"/>
    <circle class="cls-1" cx="114.84" cy="191.46" r="2.13"/>
    <circle class="cls-1" cx="25.55" cy="178.71" r="8.22"/>
    <circle class="cls-1" cx="38.3" cy="165.95" r="2.13"/>
    <circle class="cls-1" cx="12.79" cy="165.95" r="2.13"/>
    <circle class="cls-1" cx="38.3" cy="191.46" r="2.13"/>
    <circle class="cls-1" cx="12.79" cy="191.46" r="2.13"/>
    <rect class="cls-2" x=".12" y=".12" width="357.08" height="255.12" rx="8.5" ry="8.5"/>
  </g>
</svg>